<?xml version="1.0" standalone="no"?>
<!DOCTYPE svg PUBLIC "-//W3C//DTD SVG 20010904//EN"
 "http://www.w3.org/TR/2001/REC-SVG-20010904/DTD/svg10.dtd">
<svg version="1.0" xmlns="http://www.w3.org/2000/svg"
 width="500.000000pt" height="500.000000pt" viewBox="0 0 500.000000 500.000000"
 preserveAspectRatio="xMidYMid meet">

<g transform="translate(0.000000,500.000000) scale(0.100000,-0.100000)"
fill="#FF0000" stroke="none">
<path d="M2705 4080 c-192 -52 -369 -184 -458 -342 -74 -133 -98 -213 -104
-349 -7 -146 11 -235 73 -358 24 -49 44 -91 44 -94 0 -3 -16 -7 -36 -9 -31 -4
-39 0 -63 31 -16 20 -40 59 -54 86 -54 108 -139 159 -195 118 -15 -11 -40 -23
-55 -27 -17 -4 -32 -17 -39 -34 -7 -15 -20 -38 -30 -51 -24 -32 -24 -125 2
-211 20 -67 74 -156 135 -220 l33 -35 -9 -110 c-6 -60 -7 -135 -4 -165 l6 -55
-17 33 c-10 19 -29 41 -42 50 -38 25 -117 21 -182 -10 -117 -55 -175 -149
-175 -283 0 -69 4 -89 31 -145 94 -197 254 -233 451 -103 58 39 63 40 77 24
15 -16 12 -19 -37 -34 -29 -9 -65 -30 -81 -46 -24 -25 -29 -41 -38 -130 l-11
-101 -28 48 c-38 66 -104 129 -169 161 -46 22 -69 26 -140 26 -77 0 -92 -3
-162 -37 -73 -35 -185 -111 -272 -185 -22 -18 -44 -33 -49 -33 -5 0 -32 -14
-59 -31 -56 -34 -199 -84 -270 -94 -31 -5 -48 -12 -48 -21 0 -11 22 -14 103
-14 122 0 234 -25 347 -77 41 -19 98 -46 127 -59 28 -13 88 -36 133 -50 152
-49 294 -21 385 77 46 49 105 157 105 192 0 36 17 7 22 -37 7 -62 47 -137 86
-163 18 -12 58 -25 88 -28 29 -4 54 -11 54 -15 0 -20 -103 -144 -158 -189 -34
-29 -62 -56 -62 -60 0 -27 33 -34 138 -29 162 8 272 54 330 138 17 25 32 37
42 34 86 -31 176 -39 425 -39 273 0 308 4 505 57 83 23 274 94 338 127 166 84
371 259 468 395 40 57 48 77 48 110 -1 36 -8 46 -60 94 -99 90 -167 136 -296
199 -131 65 -211 91 -350 119 l-88 17 0 31 c0 43 -22 83 -106 196 -89 118
-138 213 -125 238 5 10 11 33 13 52 4 29 12 39 57 66 102 62 191 161 254 286
67 132 82 197 81 348 0 106 -5 137 -26 201 -86 260 -270 440 -524 514 -110 32
-271 34 -379 5z m348 -40 c118 -31 214 -81 297 -156 93 -84 110 -104 152 -184
108 -201 122 -409 41 -612 -25 -62 -24 -39 2 49 33 116 39 192 22 298 -17 98
-46 185 -86 255 -40 70 -84 129 -101 135 -9 3 -24 19 -34 36 -10 17 -20 28
-23 25 -3 -3 -14 5 -24 17 -23 28 -23 23 1 -67 15 -55 20 -98 18 -162 l-3 -88
-67 -12 c-66 -12 -69 -12 -125 16 -92 47 -187 64 -321 58 l-116 -6 -95 45
c-100 47 -186 71 -215 60 -51 -20 -58 -148 -14 -282 l23 -69 -45 -91 c-25 -49
-56 -123 -69 -162 -13 -40 -26 -71 -31 -68 -4 2 -18 39 -31 82 -20 64 -24 99
-24 198 0 137 13 192 77 325 57 120 177 239 298 299 166 81 336 102 493 61z
m-581 -341 c35 -12 98 -39 141 -60 77 -40 78 -40 138 -28 112 22 241 -1 367
-65 l53 -27 97 16 c53 9 126 15 162 13 60 -3 65 -5 68 -28 6 -39 -15 -92 -64
-166 -25 -38 -53 -76 -61 -85 -12 -15 -12 -26 1 -91 15 -71 19 -105 31 -246 5
-61 4 -62 -16 -51 -26 13 -33 7 -33 -33 -1 -25 -6 -33 -28 -39 -14 -4 -44 -21
-65 -37 -21 -17 -67 -41 -103 -53 -56 -20 -85 -23 -205 -23 -168 1 -301 29
-430 93 -67 33 -89 51 -138 110 -32 39 -65 71 -74 71 -11 0 -13 5 -8 18 4 9
10 28 13 41 4 21 2 23 -22 19 -22 -5 -26 -2 -20 11 4 9 22 55 40 104 18 48 50
119 70 158 l37 70 -27 88 c-30 97 -37 183 -18 219 15 27 17 27 94 1z m-484
-573 c34 -18 69 -64 112 -145 23 -43 50 -75 82 -99 42 -32 46 -38 41 -66 -17
-95 -105 -209 -169 -222 -26 -5 -38 0 -67 26 -56 49 -136 163 -159 227 -25 71
-30 170 -8 186 9 7 23 24 33 40 10 15 25 27 35 27 10 0 25 9 35 20 20 24 29
25 65 6z m305 -243 c-7 -2 -21 -2 -30 0 -10 3 -4 5 12 5 17 0 24 -2 18 -5z
m-4 -105 c15 -46 87 -112 167 -155 54 -28 255 -93 293 -93 14 -1 14 -2 -2 -11
-21 -12 -47 -61 -47 -89 0 -18 -6 -20 -57 -20 -86 0 -291 20 -319 30 -13 5
-24 16 -24 24 0 10 -21 21 -57 32 -83 24 -168 63 -157 72 5 5 26 21 48 36 47
35 92 104 112 174 17 58 25 58 43 0z m232 -66 c172 -73 219 -84 380 -89 90 -4
173 -1 214 6 37 7 70 10 73 7 14 -14 -35 -45 -93 -60 -176 -44 -507 11 -657
109 -56 37 -108 93 -108 116 0 19 4 18 48 -14 27 -19 91 -52 143 -75z m814
-370 c69 -93 95 -141 95 -181 0 -11 -10 -12 -47 -7 -39 5 -56 15 -109 66 -53
51 -60 61 -47 72 38 31 34 95 -6 128 -18 14 -45 126 -34 142 2 4 19 -21 37
-55 19 -35 68 -109 111 -165z m-1325 188 c-18 -11 -24 -6 -16 16 5 14 9 15 19
5 9 -9 9 -14 -3 -21z m1130 0 c0 -5 -2 -10 -4 -10 -3 0 -8 5 -11 10 -3 6 -1
10 4 10 6 0 11 -4 11 -10z m-1010 -50 c24 -6 25 -11 24 -73 -1 -85 -13 -101
-73 -93 -63 9 -71 19 -71 91 0 90 4 96 54 88 22 -3 52 -9 66 -13z m660 1 c-12
-24 -13 -221 -1 -241 13 -20 5 -29 -19 -23 -32 8 -43 38 -27 70 15 29 12 89
-4 99 -5 3 -9 25 -9 49 0 46 15 64 53 65 14 0 16 -4 7 -19z m260 -44 c0 -54
-4 -69 -25 -93 -23 -27 -27 -39 -29 -99 -1 -18 -9 -20 -76 -23 -103 -4 -110 5
-110 141 0 136 1 137 137 137 l103 0 0 -63z m93 49 c17 -17 30 -139 21 -199
-8 -53 -26 -67 -85 -67 -47 0 -47 0 -52 38 -3 28 1 46 19 73 19 28 24 48 24
102 l0 67 29 0 c16 0 36 -6 44 -14z m-923 -30 c0 -3 -4 -8 -10 -11 -5 -3 -10
-1 -10 4 0 6 5 11 10 11 6 0 10 -2 10 -4z m122 -46 c52 -13 136 -23 226 -27
161 -7 171 -11 152 -67 -10 -31 -16 -36 -55 -42 -24 -3 -97 -4 -162 -2 -175 6
-283 48 -283 111 0 22 16 47 31 47 4 0 45 -9 91 -20z m878 -55 c0 -12 -7 -28
-15 -35 -13 -11 -15 -6 -15 35 0 41 2 46 15 35 8 -7 15 -23 15 -35z m-1011
-92 c0 -37 3 -75 7 -85 7 -23 -13 -23 -106 -2 -83 19 -108 37 -119 87 -9 37
-4 46 16 26 5 -5 35 -13 66 -16 62 -6 100 10 112 47 12 37 23 11 24 -57z
m-326 26 c38 -47 14 -103 -67 -154 -78 -49 -96 -129 -44 -194 43 -54 99 -65
154 -32 l31 19 41 -27 c23 -14 42 -29 42 -33 0 -15 -83 -68 -139 -89 -65 -24
-128 -21 -188 9 -49 25 -64 43 -103 122 -27 54 -32 75 -32 135 0 76 10 110 49
168 61 89 208 133 256 76z m467 -35 c69 -18 244 -25 315 -12 36 7 42 5 50 -15
19 -41 46 -46 233 -40 200 7 213 -1 75 -43 -84 -25 -86 -26 -138 -9 -57 17
-136 17 -142 -1 -2 -7 20 -13 60 -16 46 -4 74 -12 96 -29 40 -30 39 -41 -3
-33 -73 13 -211 -53 -304 -146 -17 -16 -33 -30 -36 -30 -3 0 -24 13 -48 29
-24 16 -64 38 -89 50 -96 45 -152 131 -165 255 -6 64 -5 68 12 63 11 -3 48
-14 84 -23z m-390 -39 c11 -29 59 -61 115 -76 22 -6 46 -13 54 -16 11 -3 8 -8
-10 -17 -13 -7 -35 -19 -49 -28 -14 -9 -47 -19 -73 -23 -92 -13 -147 -34 -147
-56 0 -14 10 -25 30 -32 36 -13 39 -27 8 -28 -62 -3 -94 14 -102 55 -10 53 10
92 59 115 48 23 84 62 92 103 7 34 11 35 23 3z m1265 -53 c-26 -2 -49 -1 -52
1 -2 3 3 20 12 37 l17 32 35 -33 34 -34 -46 -3z m295 -67 c41 -8 82 -18 91
-20 38 -12 109 -423 109 -627 0 -40 -3 -104 -7 -141 l-6 -68 -46 -23 c-25 -13
-89 -37 -141 -54 -364 -117 -683 -140 -985 -70 -103 24 -285 91 -314 116 -16
15 -61 117 -61 141 0 5 20 11 45 13 88 10 242 111 233 154 -4 24 -55 58 -126
85 -45 16 -72 20 -125 16 -59 -4 -67 -2 -63 12 3 9 8 45 11 80 5 39 14 69 24
78 44 39 179 134 198 139 30 8 160 -70 189 -113 14 -21 24 -56 28 -101 8 -81
59 -198 103 -237 37 -33 104 -65 134 -65 15 0 36 -11 50 -26 44 -47 77 -58
174 -58 102 0 129 10 187 71 156 162 64 427 -157 450 l-52 5 1 72 c0 56 -4 80
-23 115 -26 49 -22 56 39 67 19 3 40 8 45 10 24 10 376 -6 445 -21z m-1271
-21 c6 -15 10 -28 9 -29 -6 -5 -108 19 -108 26 0 6 53 26 76 28 6 1 16 -11 23
-25z m1461 -46 c0 -13 -23 -5 -28 10 -2 7 2 10 12 6 9 -3 16 -11 16 -16z m40
-9 c0 -5 4 -8 8 -5 5 3 41 -10 80 -29 39 -19 75 -35 81 -35 20 0 209 -137 264
-192 27 -28 39 -60 13 -36 -8 7 -13 14 -11 16 4 4 -70 72 -78 72 -3 0 -37 23
-74 51 -73 55 -113 76 -275 143 -40 16 -48 26 -23 26 8 0 15 -5 15 -11z
m-1502 -35 c29 -14 50 -30 46 -35 -3 -6 -10 -6 -17 -1 -23 17 -103 45 -172 58
l-70 14 80 -5 c58 -4 94 -12 133 -31z m701 26 c44 -23 30 -147 -27 -232 l-26
-40 26 -46 c63 -113 37 -211 -63 -235 -38 -10 -121 18 -151 50 -39 40 -78 132
-90 210 -6 38 -17 81 -25 96 -13 26 -12 30 23 72 34 42 118 101 175 124 32 13
135 14 158 1z m-849 -269 c0 -5 -13 -14 -30 -21 -39 -16 -66 -62 -75 -127 -4
-29 -12 -56 -18 -60 -16 -10 1 137 19 165 22 33 104 67 104 43z m-565 -56
c-77 -18 -153 -59 -225 -117 -118 -97 -307 -214 -332 -206 -6 2 16 18 50 35
82 42 189 113 260 172 86 72 207 130 267 129 23 0 19 -3 -20 -13z m1575 -26
c61 -38 73 -67 43 -103 -15 -18 -16 -19 -1 -8 14 11 16 11 12 -5 -13 -45 -70
-83 -126 -83 -53 0 -63 12 -43 50 17 33 17 112 0 153 -6 15 -1 17 36 17 27 0
57 -8 79 -21z m-1372 -20 c37 -13 71 -55 102 -127 20 -46 21 -57 11 -99 -17
-66 -57 -129 -98 -154 -53 -33 -128 -23 -229 31 -115 61 -192 92 -249 99 l-50
7 40 13 c59 20 141 76 222 153 40 37 87 72 105 77 46 13 109 13 146 0z m455
-76 c-7 -2 -21 -2 -30 0 -10 3 -4 5 12 5 17 0 24 -2 18 -5z m74 1 c-3 -3 -12
-4 -19 -1 -8 3 -5 6 6 6 11 1 17 -2 13 -5z m-258 -209 l0 -20 -9 20 c-5 11 -9
27 -9 35 -1 13 0 13 9 0 5 -8 9 -24 9 -35z"/>
<path d="M2410 3651 c-13 -26 -12 -64 4 -132 16 -65 32 -99 48 -99 14 0 138
124 138 138 0 15 -57 60 -111 88 -58 29 -65 30 -79 5z"/>
<path d="M3311 3502 c-74 -24 -82 -39 -48 -99 15 -26 35 -65 43 -85 10 -23 23
-38 33 -38 21 1 95 99 117 157 13 33 15 50 7 62 -14 22 -86 24 -152 3z"/>
<path d="M2660 3263 c-37 -14 -79 -67 -86 -109 -9 -65 2 -99 41 -120 32 -17
36 -17 69 -1 82 39 99 188 27 227 -21 11 -28 11 -51 3z m70 -91 c0 -30 -16
-52 -37 -52 -16 0 -17 52 -1 68 21 21 38 14 38 -16z m-113 -59 c-16 -16 -17
-16 -17 3 0 11 3 24 7 28 4 3 11 2 17 -4 7 -7 5 -16 -7 -27z"/>
<path d="M3036 3180 c-51 -61 -53 -143 -5 -204 25 -32 66 -34 102 -5 55 42 58
160 6 211 -36 37 -71 36 -103 -2z m34 -80 c0 -29 -4 -40 -15 -40 -20 0 -29 23
-21 55 11 42 36 31 36 -15z m70 -54 c0 -8 -4 -17 -9 -20 -10 -7 -23 19 -14 28
11 11 23 6 23 -8z"/>
<path d="M2794 3019 c-4 -7 2 -20 16 -31 18 -15 20 -21 10 -33 -16 -19 -34
-19 -50 0 -17 20 -30 19 -30 -4 0 -27 24 -43 62 -40 18 1 46 -3 61 -10 31 -12
60 -2 71 24 5 13 0 15 -29 9 -28 -5 -36 -3 -42 11 -4 12 0 23 11 31 31 22 16
49 -31 52 -24 2 -44 -2 -49 -9z"/>
<path d="M2836 2398 c-9 -12 -16 -33 -16 -46 0 -31 43 -72 75 -72 32 0 75 41
75 72 0 44 -27 68 -75 68 -34 0 -47 -5 -59 -22z m88 6 c21 -8 21 -60 0 -68
-23 -9 -34 2 -34 33 0 38 7 45 34 35z"/>
</g>
</svg>
